<svg width="70" height="48" viewBox="0 0 70 48" fill="none" xmlns="http://www.w3.org/2000/svg">
<path fill-rule="evenodd" clip-rule="evenodd" d="M18.5271 16.4463L18.9879 20.3106L5.79615 21.8838L7.75113 42.5713L23.2247 40.8645L23.6514 44.7327L4.24862 46.8729L1.56445 18.4692L18.5271 16.4463Z" fill="white"/>
<path fill-rule="evenodd" clip-rule="evenodd" d="M0 29.9181L18.261 27.6729L18.7359 31.5354L0.474909 33.7806L0 29.9181Z" fill="white"/>
<path fill-rule="evenodd" clip-rule="evenodd" d="M28.0494 47.0126L22.6807 9.31332L26.5335 8.76465L31.9022 46.464L28.0494 47.0126Z" fill="white"/>
<path fill-rule="evenodd" clip-rule="evenodd" d="M36.7186 48L33.8369 0.234361L37.7215 0L40.6033 47.7656L36.7186 48Z" fill="white"/>
<path d="M53.299 31.9994C54.415 31.9994 55.3197 31.0947 55.3197 29.9787C55.3197 28.8627 54.415 27.958 53.299 27.958C52.183 27.958 51.2783 28.8627 51.2783 29.9787C51.2783 31.0947 52.183 31.9994 53.299 31.9994Z" fill="white"/>
<path d="M60.0346 33.3463C61.2333 33.3463 62.205 32.4081 62.205 31.2508C62.205 30.0935 61.2333 29.1553 60.0346 29.1553C58.836 29.1553 57.8643 30.0935 57.8643 31.2508C57.8643 32.4081 58.836 33.3463 60.0346 33.3463Z" fill="white"/>
<path fill-rule="evenodd" clip-rule="evenodd" d="M47.7415 30.7283C46.9934 35.0287 50.1627 39.4321 55.1988 40.3082C60.2349 41.1844 64.7052 38.1102 65.4533 33.8098C66.2015 29.5093 63.0321 25.106 57.9961 24.2299C52.96 23.3537 48.4897 26.4279 47.7415 30.7283ZM54.5318 44.1423C47.6684 42.9483 42.7423 36.7582 43.9074 30.0613C45.0725 23.3644 51.7997 19.2017 58.6631 20.3958C65.5265 21.5898 70.4525 27.7799 69.2874 34.4768C68.1223 41.1737 61.3952 45.3364 54.5318 44.1423Z" fill="white"/>
</svg>
