<svg width="600" height="97" viewBox="0 0 600 97" fill="none" xmlns="http://www.w3.org/2000/svg">
<rect width="600" height="97" fill="#F5F5F5"/>
<path fill-rule="evenodd" clip-rule="evenodd" d="M65.4392 52.7051L65.8233 55.9253L54.8301 57.2363L56.4593 74.4759L69.3539 73.0536L69.7095 76.2771L53.5405 78.0606L51.3037 54.3908L65.4392 52.7051Z" fill="#969696"/>
<path fill-rule="evenodd" clip-rule="evenodd" d="M50 63.9315L65.2175 62.0605L65.6132 65.2794L50.3958 67.1504L50 63.9315Z" fill="#969696"/>
<path fill-rule="evenodd" clip-rule="evenodd" d="M73.3743 78.177L68.9004 46.7609L72.1111 46.3037L76.585 77.7198L73.3743 78.177Z" fill="#969696"/>
<path fill-rule="evenodd" clip-rule="evenodd" d="M80.5987 79L78.1973 39.1953L81.4344 39L83.8359 78.8047L80.5987 79Z" fill="#969696"/>
<path d="M94.4158 65.6657C95.3458 65.6657 96.0997 64.9117 96.0997 63.9818C96.0997 63.0518 95.3458 62.2979 94.4158 62.2979C93.4858 62.2979 92.7319 63.0518 92.7319 63.9818C92.7319 64.9117 93.4858 65.6657 94.4158 65.6657Z" fill="#969696"/>
<path d="M100.028 66.7884C101.027 66.7884 101.837 66.0066 101.837 65.0422C101.837 64.0777 101.027 63.2959 100.028 63.2959C99.0295 63.2959 98.2197 64.0777 98.2197 65.0422C98.2197 66.0066 99.0295 66.7884 100.028 66.7884Z" fill="#969696"/>
<path fill-rule="evenodd" clip-rule="evenodd" d="M89.7846 64.6073C89.1612 68.1909 91.8023 71.8604 95.999 72.5905C100.196 73.3206 103.921 70.7588 104.544 67.1751C105.168 63.5914 102.527 59.922 98.3301 59.1919C94.1333 58.4617 90.4081 61.0236 89.7846 64.6073ZM95.4432 75.7856C89.7237 74.7905 85.6186 69.6322 86.5896 64.0514C87.5605 58.4706 93.1665 55.0018 98.8859 55.9968C104.605 56.9918 108.71 62.1502 107.74 67.731C106.769 73.3117 101.163 76.7806 95.4432 75.7856Z" fill="#969696"/>
<path d="M478.797 65V55.8774H481.91L482.388 52.3197H478.797V50.0481C478.797 49.0264 479.079 48.3173 480.586 48.3173H482.51V45.1442C482.179 45.0962 481.04 45 479.716 45C476.946 45 475.047 46.6587 475.047 49.6995V52.3197H471.922V55.8774H475.047V65H478.797Z" fill="#969696"/>
<path d="M478.797 65V55.8774H481.91L482.388 52.3197H478.797V50.0481C478.797 49.0264 479.079 48.3173 480.586 48.3173H482.51V45.1442C482.179 45.0962 481.04 45 479.716 45C476.946 45 475.047 46.6587 475.047 49.6995V52.3197H471.922V55.8774H475.047V65H478.797Z" fill="#969696"/>
<path fill-rule="evenodd" clip-rule="evenodd" d="M444.597 51.0476C444.643 52.0421 444.653 52.3604 444.653 54.8925C444.653 57.4259 444.643 57.743 444.597 58.7374C444.445 62.1288 442.556 64.0081 439.173 64.1632C438.177 64.2086 437.86 64.2191 435.327 64.2191C432.793 64.2191 432.477 64.2086 431.482 64.1632C428.091 64.0081 426.212 62.1253 426.056 58.7374C426.01 57.743 426 57.4259 426 54.8925C426 52.3604 426.01 52.0421 426.056 51.0465C426.212 47.6563 428.094 45.7769 431.482 45.6219C432.477 45.5764 432.793 45.5659 435.327 45.5659C437.86 45.5659 438.177 45.5764 439.173 45.623C442.563 45.7781 444.445 47.6644 444.597 51.0476ZM442.92 51.1246C442.964 52.1073 442.973 52.4023 442.973 54.8925C442.973 57.3827 442.964 57.6777 442.92 58.6616C442.803 61.1681 441.627 62.3701 439.097 62.4843C438.113 62.5286 437.818 62.5391 435.327 62.5391C432.836 62.5391 432.54 62.5298 431.559 62.4855C429.024 62.3701 427.85 61.1658 427.736 58.6628C427.69 57.6777 427.68 57.3827 427.68 54.8925C427.68 52.4023 427.69 52.1073 427.735 51.1246C427.85 48.6157 429.028 47.4161 431.557 47.3018C432.541 47.2563 432.836 47.247 435.327 47.247C437.817 47.247 438.113 47.2563 439.096 47.3007C441.623 47.4161 442.803 48.6157 442.92 51.1246ZM438.436 54.8925C438.436 56.6098 437.044 58.0018 435.327 58.0018C433.609 58.0018 432.217 56.611 432.217 54.8925C432.217 53.1753 433.609 51.7833 435.327 51.7833C437.044 51.7833 438.436 53.1753 438.436 54.8925ZM435.327 50.1033C437.971 50.1033 440.116 52.2473 440.116 54.8925C440.116 57.5378 437.972 59.6818 435.327 59.6818C432.683 59.6818 430.537 57.5378 430.537 54.8925C430.537 52.2473 432.681 50.1033 435.327 50.1033ZM441.424 49.9145C441.424 49.2966 440.923 48.7953 440.305 48.7953C439.687 48.7953 439.185 49.2966 439.185 49.9145C439.185 50.5323 439.687 51.0336 440.305 51.0336C440.924 51.0336 441.424 50.5323 441.424 49.9145Z" fill="#969696"/>
<path fill-rule="evenodd" clip-rule="evenodd" d="M530.692 62.861C530.692 62.861 527.536 63.0998 522.776 63.0998C516.892 63.0495 515.087 62.8736 515.087 62.8736C515.004 62.8592 514.905 62.8478 514.793 62.835C514.218 62.7693 513.305 62.665 512.587 61.9183C512.587 61.9183 511.893 61.227 511.691 59.681C511.497 58.2129 511.468 56.7447 511.464 56.2293V54.1332C511.468 53.6178 511.497 52.1496 511.691 50.6815C511.893 49.1229 512.587 48.4442 512.587 48.4442C513.362 47.6275 514.229 47.5478 514.716 47.5031C514.768 47.4983 514.816 47.4938 514.86 47.4889C514.86 47.4889 518.016 47.2627 522.776 47.2627C527.536 47.2627 530.692 47.4889 530.692 47.4889C530.735 47.4938 530.783 47.4983 530.836 47.5031C531.323 47.5478 532.19 47.6275 532.965 48.4442C532.965 48.4442 533.659 49.1229 533.861 50.6815C534.068 52.2509 534.087 53.8203 534.088 54.226V56.1365C534.087 56.5422 534.068 58.1116 533.861 59.681C533.659 61.227 532.965 61.9183 532.965 61.9183L532.861 62.0212C532.115 62.7296 531.303 62.804 530.838 62.8467C530.784 62.8515 530.736 62.856 530.692 62.861ZM520.44 51.775V58.0973L526.551 54.955L520.44 51.775Z" fill="#969696"/>
</svg>
